<?xml version="1.0" standalone="no"?>
<!DOCTYPE svg PUBLIC "-//W3C//DTD SVG 20010904//EN"
 "http://www.w3.org/TR/2001/REC-SVG-20010904/DTD/svg10.dtd">
<svg version="1.0" xmlns="http://www.w3.org/2000/svg"
 width="812.000000pt" height="812.000000pt" viewBox="0 0 812.000000 812.000000"
 preserveAspectRatio="xMidYMid meet">
<metadata>
Created by potrace 1.14, written by Peter Selinger 2001-2017
</metadata>
<g transform="translate(0.000000,812.000000) scale(0.100000,-0.100000)"
fill="#000000" stroke="none">
<path d="M6748 8114 c-2 -1 -64 -5 -138 -9 -74 -3 -162 -8 -195 -10 -33 -2
-109 -6 -170 -10 -60 -3 -137 -8 -170 -10 -33 -2 -116 -6 -185 -10 -69 -3
-154 -7 -190 -10 -36 -2 -117 -7 -180 -10 -63 -4 -144 -8 -180 -11 -36 -2
-130 -6 -210 -8 -207 -7 -438 -17 -485 -21 -22 -1 -95 -6 -162 -9 -67 -4 -148
-9 -180 -11 -32 -2 -116 -7 -188 -10 -71 -4 -159 -8 -195 -10 -36 -3 -114 -7
-175 -10 -60 -3 -137 -7 -170 -10 -33 -2 -116 -7 -185 -10 -69 -3 -159 -8
-200 -11 -41 -2 -118 -7 -170 -9 -113 -5 -268 -14 -365 -21 -38 -2 -117 -7
-175 -10 -58 -3 -130 -7 -160 -8 -30 -2 -113 -7 -185 -11 -71 -3 -161 -8 -200
-11 -38 -2 -115 -6 -170 -9 -55 -3 -138 -7 -185 -10 -47 -3 -134 -7 -195 -10
-60 -3 -146 -8 -190 -10 -91 -4 -142 -11 -200 -27 -22 -6 -48 -13 -57 -15 -27
-5 -133 -55 -136 -64 -2 -5 -8 -7 -12 -4 -5 3 -19 -5 -32 -18 -13 -13 -31 -28
-40 -33 -26 -15 -130 -116 -164 -159 -55 -71 -131 -216 -140 -267 -1 -5 -2 -9
-3 -10 -2 -2 -4 -12 -6 -23 -3 -11 -9 -42 -15 -70 -6 -33 -8 -236 -5 -585 3
-294 7 -732 8 -972 1 -241 5 -438 9 -438 4 0 5 -7 1 -15 -9 -26 -9 -249 0
-262 6 -8 6 -13 1 -13 -10 0 -11 -90 -1 -106 3 -6 4 -14 0 -17 -9 -10 -9 -108
0 -114 4 -2 4 -9 1 -15 -4 -6 -6 -31 -5 -57 7 -238 19 -1000 26 -1716 6 -619
15 -1301 18 -1365 2 -30 -1 -65 -4 -76 -4 -12 -5 -25 -2 -28 3 -3 7 -65 9
-138 3 -157 11 -248 25 -303 5 -22 11 -44 12 -50 1 -5 6 -16 10 -22 5 -7 6
-13 3 -13 -12 0 78 -169 114 -214 30 -38 105 -121 113 -124 4 -2 13 -9 20 -16
20 -21 118 -86 151 -101 115 -52 168 -74 193 -79 26 -6 81 -9 337 -21 55 -2
144 -7 196 -10 52 -3 142 -7 200 -10 193 -9 430 -21 585 -30 89 -6 183 -10
385 -20 58 -3 134 -7 170 -9 218 -13 315 -18 390 -21 105 -5 266 -13 385 -20
90 -6 196 -11 375 -20 136 -7 270 -14 385 -20 55 -4 138 -8 185 -10 131 -7
266 -14 365 -20 50 -3 137 -7 195 -10 58 -3 148 -7 200 -10 52 -3 136 -7 185
-10 50 -2 90 -5 90 -5 0 -1 43 -3 95 -5 52 -2 145 -7 205 -10 369 -24 573 -26
646 -8 35 8 71 16 79 18 8 1 28 7 43 14 16 6 33 11 38 11 5 0 9 5 9 11 0 5 3
8 8 6 8 -6 105 46 154 82 18 14 65 58 105 99 56 58 82 95 121 175 86 177 91
206 117 622 2 39 5 70 6 70 2 0 8 59 11 117 2 32 6 58 9 58 4 0 3 18 -1 40 -4
22 -5 42 -1 45 3 4 6 23 7 43 3 65 13 235 19 307 3 39 8 108 10 155 3 47 7
114 9 150 3 36 7 112 11 170 3 58 7 130 10 160 2 30 7 100 10 155 4 55 8 118
10 140 1 22 6 94 10 160 3 66 8 149 11 185 2 36 6 99 9 140 2 41 7 110 10 152
11 166 16 246 21 323 2 44 7 116 10 160 3 44 7 109 9 145 5 87 15 240 21 321
2 36 7 113 9 170 3 57 5 104 6 104 2 0 7 69 13 175 3 52 8 131 11 175 3 44 8
118 11 165 2 47 6 110 8 140 2 30 7 98 10 150 13 201 16 258 22 335 3 44 7
116 10 160 2 44 6 112 9 150 12 193 18 284 19 327 0 27 3 48 6 48 3 0 5 30 6
68 1 37 4 114 8 172 3 58 9 141 11 185 3 44 7 112 10 150 26 370 26 446 0 570
-19 93 -72 206 -128 277 -65 82 -171 183 -218 208 -13 7 -26 16 -29 20 -11 14
-141 70 -211 91 -60 18 -103 22 -226 24 -84 1 -154 1 -155 -1z"/>
</g>
</svg>
