<?xml version="1.0" standalone="no"?>
<!DOCTYPE svg PUBLIC "-//W3C//DTD SVG 20010904//EN"
 "http://www.w3.org/TR/2001/REC-SVG-20010904/DTD/svg10.dtd">
<svg version="1.0" xmlns="http://www.w3.org/2000/svg"
 width="824.000000pt" height="824.000000pt" viewBox="0 0 824.000000 824.000000"
 preserveAspectRatio="xMidYMid meet">
<metadata>
Created by potrace 1.14, written by Peter Selinger 2001-2017
</metadata>
<g transform="translate(0.000000,824.000000) scale(0.100000,-0.100000)"
fill="#000000" stroke="none">
<path d="M6418 8235 c-1 -1 -45 -6 -97 -9 -51 -4 -110 -9 -130 -12 -32 -4 -80
-8 -221 -19 -111 -8 -198 -16 -240 -20 -25 -3 -76 -7 -115 -10 -38 -3 -88 -7
-110 -9 -50 -6 -182 -16 -255 -21 -30 -2 -84 -6 -120 -10 -132 -13 -176 -17
-232 -18 -32 -1 -58 -4 -58 -7 0 -3 -21 -6 -48 -6 -42 -1 -85 -5 -237 -18
-260 -23 -390 -26 -625 -12 -74 5 -166 10 -205 11 -38 2 -104 6 -145 9 -147
10 -307 18 -450 21 -168 4 -320 14 -332 21 -4 3 -8 1 -8 -5 0 -6 -11 -7 -27
-2 -16 4 -54 7 -85 7 -32 -1 -58 1 -58 4 0 3 -39 6 -88 6 -48 1 -130 5 -182 9
-52 3 -131 8 -175 10 -108 5 -262 14 -365 21 -47 3 -123 7 -170 9 -47 3 -132
7 -190 11 -181 9 -280 5 -334 -16 -14 -5 -26 -8 -26 -5 0 13 -192 -72 -244
-109 -37 -26 -81 -63 -115 -97 -64 -64 -111 -119 -111 -128 0 -6 -4 -11 -10
-11 -5 0 -10 -7 -10 -15 0 -8 -4 -15 -10 -15 -5 0 -10 -9 -10 -20 0 -11 -5
-20 -11 -20 -5 0 -8 -4 -4 -9 3 -5 1 -12 -5 -16 -5 -3 -19 -38 -31 -77 -17
-54 -31 -80 -64 -112 -109 -107 -183 -246 -220 -411 -13 -60 -14 -252 -1 -310
20 -92 26 -123 31 -154 3 -19 7 -37 9 -40 2 -3 7 -22 10 -41 3 -19 10 -60 16
-90 7 -30 14 -68 16 -85 3 -16 9 -46 14 -65 5 -19 12 -51 15 -70 3 -19 8 -42
11 -51 2 -10 6 -31 9 -48 2 -17 6 -38 9 -48 3 -10 7 -29 10 -43 2 -14 7 -36
10 -50 7 -30 15 -74 22 -115 4 -25 13 -66 19 -85 2 -8 18 -105 18 -110 0 -3 3
-15 8 -26 4 -12 11 -41 14 -65 4 -24 8 -46 10 -49 2 -4 7 -29 11 -56 3 -27 10
-56 15 -65 4 -9 6 -18 4 -21 -2 -2 0 -20 5 -39 5 -19 12 -47 14 -64 3 -16 8
-41 11 -55 3 -14 8 -38 10 -55 3 -16 8 -37 10 -45 2 -8 7 -28 10 -45 2 -16 7
-39 9 -50 8 -38 35 -170 41 -200 10 -50 13 -85 20 -205 3 -63 8 -140 10 -170
3 -30 7 -91 10 -135 3 -44 7 -92 9 -107 2 -16 -1 -28 -6 -28 -5 0 -6 -6 -1
-12 4 -7 9 -24 9 -38 2 -39 13 -217 20 -310 3 -47 7 -116 10 -155 22 -378 33
-536 40 -546 2 -4 0 -10 -6 -14 -6 -4 -7 -11 -3 -18 4 -6 8 -32 9 -57 1 -25 5
-88 8 -140 7 -96 13 -192 21 -330 2 -41 7 -113 10 -160 13 -189 16 -238 30
-465 5 -97 15 -254 19 -315 7 -98 19 -296 20 -322 1 -16 3 -28 6 -28 3 0 6
-21 7 -48 15 -317 22 -393 51 -492 9 -30 17 -60 18 -66 3 -19 83 -173 106
-206 43 -61 152 -164 200 -189 13 -6 25 -15 28 -18 7 -9 115 -57 170 -74 74
-25 157 -39 225 -38 59 0 91 -12 125 -49 28 -30 176 -106 245 -126 134 -39
287 -41 450 -5 46 11 79 17 130 26 11 2 31 6 45 9 14 3 37 8 53 11 41 8 74 14
157 31 41 8 90 17 109 20 18 2 36 6 40 8 3 3 27 7 51 11 25 3 61 10 80 15 20
5 51 12 70 14 19 3 67 11 105 20 39 8 87 17 107 20 21 3 59 11 85 17 76 17
159 32 183 34 8 0 20 3 25 7 6 3 30 9 55 12 49 7 79 12 125 23 17 3 37 7 45 8
8 1 29 5 47 9 18 4 69 9 115 11 90 4 246 13 373 21 44 2 127 7 185 9 116 6
224 11 375 20 180 10 289 16 375 20 47 2 130 6 185 10 55 3 143 7 195 10 192
9 297 15 390 20 52 3 136 7 185 10 254 13 318 16 405 21 52 3 118 6 145 8 28
1 57 6 65 11 8 5 20 10 25 11 6 1 46 18 90 38 125 59 230 140 313 245 41 51
122 199 122 224 0 10 20 30 48 47 80 51 84 54 131 95 112 101 179 195 227 320
25 68 28 78 41 140 7 38 7 255 0 315 -3 25 -9 65 -12 90 -3 25 -8 63 -10 85
-3 22 -8 56 -11 75 -6 35 -8 52 -19 160 -3 30 -8 64 -10 75 -4 20 -14 98 -20
165 -2 19 -6 55 -10 80 -4 25 -8 59 -10 75 -4 35 -13 110 -20 157 -4 32 -9 76
-21 183 -3 28 -8 61 -10 75 -3 14 -7 43 -9 65 -4 38 -6 55 -20 170 -4 28 -9
64 -11 80 -2 17 -5 46 -8 65 -6 44 -15 116 -21 178 -3 26 -7 61 -10 77 -4 33
-15 115 -21 155 -1 14 -6 54 -9 90 -4 36 -9 74 -11 85 -2 11 -7 45 -10 75 -4
30 -8 66 -10 80 -2 14 -6 50 -9 80 -3 30 -8 71 -11 90 -3 19 -7 51 -9 70 -2
19 -7 53 -10 76 -3 22 -8 65 -12 95 -8 74 -7 819 2 1469 9 706 10 983 2 1052
-7 67 -65 248 -79 248 -5 0 -7 4 -4 9 4 5 3 11 -1 13 -5 1 -17 19 -28 39 -53
95 -185 227 -290 289 -42 25 -75 53 -75 65 0 13 -49 74 -110 136 -66 66 -154
131 -223 163 -50 23 -147 56 -147 50 0 -3 -10 1 -22 7 -19 10 -250 23 -260 14z"/>
</g>
</svg>
