<?xml version="1.0" encoding="UTF-8" standalone="no"?>
<svg
   width="184.09073"
   height="203.12502"
   viewBox="0 0 184.09073 203.12502"
   version="1.1"
   id="svg32"
   sodipodi:docname="hypermedia.svg"
   inkscape:version="1.2.2 (732a01da63, 2022-12-09)"
   xmlns:inkscape="http://www.inkscape.org/namespaces/inkscape"
   xmlns:sodipodi="http://sodipodi.sourceforge.net/DTD/sodipodi-0.dtd"
   xmlns="http://www.w3.org/2000/svg"
   xmlns:svg="http://www.w3.org/2000/svg"><defs
   id="defs36" />
<sodipodi:namedview
   id="namedview34"
   pagecolor="#ffffff"
   bordercolor="#000000"
   borderopacity="0.25"
   inkscape:showpageshadow="2"
   inkscape:pageopacity="0.0"
   inkscape:pagecheckerboard="0"
   inkscape:deskcolor="#d1d1d1"
   showgrid="false"
   inkscape:zoom="1.4654788"
   inkscape:cx="-35.142098"
   inkscape:cy="131.0152"
   inkscape:window-width="1920"
   inkscape:window-height="1009"
   inkscape:window-x="2552"
   inkscape:window-y="-8"
   inkscape:window-maximized="1"
   inkscape:current-layer="svg32" />
<path
   fill="#cf7377"
   opacity="1"
   d="m 156.90376,0.29700819 c 1.97098,-0.113382 3.94864,-0.173427 5.91963,-0.283486 5.91629,-0.223432 11.83259,2.33450401 15.77123,6.74671301 3.69852,3.4017038 5.26599,8.5476118 5.4961,13.4467418 -3.25498,51.09559 -6.49327,102.201183 -9.75822,153.300103 -1.04054,6.07304 0.0601,12.65969 -3.03821,18.2525 -3.0882,7.42703 -11.40237,11.79256 -19.25297,11.33233 -44.69572,-2.3045 -89.388095,-4.75906 -134.080484,-7.01016 -1.347338,-0.32346 -2.564616,-1.02052 -3.858597,-1.50076 -6.4165491,-2.70802 -11.2056131,-8.8678 -12.1927741,-15.76792 -0.810404,-11.81925 -0.133403,-23.7052 -0.763715,-35.53446 0.01668,-6.67001 -0.09004,-13.34002 -0.06001,-20.01002 -0.47690704,-8.76773 -0.25346204,-17.56547 -0.33350004,-26.346543 -0.576958,-9.434713 -0.140075,-18.899453 -0.346841,-28.34752 0.03336,-13.780233 -0.476907,-27.557136 -0.396866,-41.340701 C 0.21529286,21.494287 3.1034149,15.964845 7.5656509,12.376381 11.294185,8.7712502 16.693556,7.5539702 21.739418,7.5773162 c 27.286993,-1.530766 54.580675,-3.004836 81.871002,-4.508925 5.06253,-0.246796 10.1184,-0.713693 15.19428,-0.650326 12.69969,-0.73704 25.40272,-1.380695 38.09908,-2.12106601 z"
   id="path169"
   style="stroke-width:0.333501" />
<!-- Background -->
<!-- Circles representing resources -->
<circle
   cx="40.030899"
   cy="49.695339"
   r="30"
   style="fill:#73cf77;fill-opacity:1"
   id="circle40103" />

     id=&quot;circle2&quot; /&gt;
  <circle
   cx="140.03091"
   cy="49.695339"
   r="30"
   id="circle4"
   style="fill:#8a4c4f;fill-opacity:1" />
<circle
   cx="40.030899"
   cy="149.69533"
   r="30"
   id="circle6"
   style="fill:#dfa1a4;fill-opacity:1" />
<circle
   cx="140.03091"
   cy="149.69533"
   r="30"
   id="circle8"
   style="fill:#308c88;fill-opacity:1" />
<!-- Lines representing hyperlinks -->
<line
   x1="40.030899"
   y1="49.695339"
   x2="140.03091"
   y2="49.695339"
   stroke="#000000"
   stroke-width="1"
   id="line10"
   style="fill:#666666" />
<line
   x1="40.030899"
   y1="49.695339"
   x2="40.030899"
   y2="149.69533"
   stroke="#000000"
   stroke-width="1"
   id="line12"
   style="fill:#666666" />
<line
   x1="40.030899"
   y1="49.695339"
   x2="140.03091"
   y2="149.69533"
   stroke="#000000"
   stroke-width="1"
   id="line14"
   style="fill:#666666" />
<line
   x1="140.03091"
   y1="49.695339"
   x2="140.03091"
   y2="149.69533"
   stroke="#000000"
   stroke-width="1"
   id="line16"
   style="fill:#666666" />
<line
   x1="140.03091"
   y1="49.695339"
   x2="40.030899"
   y2="149.69533"
   stroke="#000000"
   stroke-width="1"
   id="line18" />
<line
   x1="40.030899"
   y1="149.69533"
   x2="140.03091"
   y2="149.69533"
   stroke="#000000"
   stroke-width="1"
   id="line20"
   style="fill:#666666" />
<line
   x1="40.030899"
   y1="149.69533"
   x2="140.03091"
   y2="49.695339"
   stroke="#000000"
   stroke-width="1"
   id="line22"
   style="fill:#666666" />
<!-- Circles at intersections of hyperlinks -->
<circle
   cx="40.030899"
   cy="49.695339"
   r="5"
   fill="#ffffff"
   stroke="#193a1a"
   stroke-width="2"
   id="circle24" />
<circle
   cx="140.03091"
   cy="49.695339"
   r="5"
   fill="#ffffff"
   stroke="#2d2e43"
   stroke-width="2"
   id="circle26" />
<circle
   cx="40.030899"
   cy="149.69533"
   r="5"
   fill="#ffffff"
   stroke="#3b1a3a"
   stroke-width="2"
   id="circle28" />
<circle
   cx="140.03091"
   cy="149.69533"
   r="5"
   fill="#ffffff"
   stroke="#1a3b3a"
   stroke-width="2"
   id="circle30" />
</svg>
